<?xml version="1.0" standalone="no"?>
<!DOCTYPE svg PUBLIC "-//W3C//DTD SVG 20010904//EN"
 "http://www.w3.org/TR/2001/REC-SVG-20010904/DTD/svg10.dtd">
<svg version="1.0" xmlns="http://www.w3.org/2000/svg"
 width="574.000000pt" height="574.000000pt" viewBox="0 0 574.000000 574.000000"
 preserveAspectRatio="xMidYMid meet">
<metadata>
Created by potrace 1.11, written by Peter Selinger 2001-2013
</metadata>
<g transform="translate(0.000000,574.000000) scale(0.100000,-0.100000)"
fill="#000000" stroke="none">
<path d="M140 4734 c0 -8 74 -250 164 -537 90 -287 323 -1026 516 -1642 193
-616 396 -1259 449 -1430 l98 -310 353 0 354 0 313 1070 c171 589 352 1206
400 1372 48 167 91 303 94 303 4 0 10 -12 14 -27 6 -27 61 -204 360 -1153 81
-256 169 -536 196 -623 27 -86 71 -228 98 -315 27 -86 83 -263 123 -392 l74
-235 354 0 354 0 8 35 c5 19 20 71 33 115 14 44 60 204 104 355 44 151 98 338
121 415 23 77 54 185 70 240 15 55 44 154 63 220 19 66 56 192 82 280 26 88
62 212 80 275 19 63 86 295 150 515 64 220 132 454 152 520 19 66 50 172 68
235 18 63 54 185 79 270 104 359 126 435 126 442 0 5 -157 8 -350 8 -192 0
-350 -2 -350 -5 0 -3 -54 -191 -119 -418 -164 -564 -224 -770 -286 -987 -121
-418 -267 -922 -299 -1030 -19 -63 -46 -159 -61 -213 -15 -53 -31 -97 -35 -97
-4 0 -11 12 -14 28 -4 15 -28 92 -53 172 -78 251 -110 352 -136 440 -24 81
-379 1210 -562 1790 -48 151 -90 286 -94 300 l-7 25 -357 1 c-196 1 -357 -1
-357 -2 0 -4 -227 -789 -467 -1614 -149 -513 -267 -921 -300 -1038 -15 -51
-30 -89 -33 -85 -4 5 -35 98 -69 208 -98 313 -364 1162 -501 1595 -34 107 -83
265 -110 350 -27 85 -79 253 -116 373 l-68 217 -353 0 c-313 0 -353 -2 -353
-16z"/>
</g>
</svg>
